<?xml version="1.0" encoding="utf-8"?>
<!-- Generator: Adobe Illustrator 17.1.0, SVG Export Plug-In . SVG Version: 6.00 Build 0)  -->
<!DOCTYPE svg PUBLIC "-//W3C//DTD SVG 1.1//EN" "http://www.w3.org/Graphics/SVG/1.1/DTD/svg11.dtd">
<svg version="1.1" id="Layer_1" xmlns="http://www.w3.org/2000/svg" xmlns:xlink="http://www.w3.org/1999/xlink" x="0px" y="0px"
	 viewBox="0 0 30 30" enable-background="new 0 0 30 30" xml:space="preserve">
<path d="M15,23.529c-4.703,0-8.529-3.826-8.529-8.529S10.297,6.471,15,6.471s8.529,3.826,8.529,8.529S19.703,23.529,15,23.529z
	 M22.193,16.168c-0.249-0.078-2.255-0.677-4.538-0.311c0.953,2.618,1.341,4.751,1.415,5.194
	C20.705,19.945,21.868,18.195,22.193,16.168z M17.846,21.717c-0.108-0.639-0.531-2.867-1.554-5.525
	c-0.016,0.006-0.032,0.011-0.048,0.016c-4.109,1.432-5.584,4.282-5.715,4.549c1.235,0.963,2.787,1.538,4.472,1.538
	C16.009,22.296,16.971,22.09,17.846,21.717z M9.588,19.882c0.165-0.282,2.164-3.593,5.922-4.807
	c0.095-0.031,0.191-0.059,0.287-0.087c-0.183-0.414-0.382-0.828-0.591-1.236c-3.638,1.089-7.169,1.044-7.487,1.037
	c-0.002,0.074-0.004,0.148-0.004,0.223C7.715,16.882,8.424,18.591,9.588,19.882z M7.869,13.519c0.326,0.004,3.327,0.017,6.735-0.887
	c-1.207-2.146-2.509-3.95-2.701-4.213C9.865,9.379,8.341,11.258,7.869,13.519z M13.293,7.929c0.201,0.27,1.525,2.071,2.718,4.265
	c2.59-0.971,3.687-2.445,3.818-2.632C18.542,8.421,16.851,7.726,15,7.726C14.412,7.726,13.84,7.796,13.293,7.929z M20.639,10.404
	c-0.154,0.208-1.374,1.773-4.068,2.873c0.17,0.347,0.332,0.7,0.483,1.055c0.054,0.126,0.106,0.251,0.157,0.376
	c2.424-0.305,4.832,0.184,5.073,0.235C22.268,13.223,21.654,11.644,20.639,10.404z"/>
<g>
	<path fill="#231F20" d="M15,1c7.72,0,14,6.28,14,14s-6.28,14-14,14S1,22.72,1,15S7.28,1,15,1 M15,0C6.716,0,0,6.716,0,15
		s6.716,15,15,15s15-6.716,15-15S23.284,0,15,0L15,0z"/>
</g>
</svg>
