<?xml version="1.0" encoding="utf-8"?>
<!-- Generator: Adobe Illustrator 17.1.0, SVG Export Plug-In . SVG Version: 6.00 Build 0)  -->
<!DOCTYPE svg PUBLIC "-//W3C//DTD SVG 1.1//EN" "http://www.w3.org/Graphics/SVG/1.1/DTD/svg11.dtd">
<svg version="1.1" id="Layer_1" xmlns="http://www.w3.org/2000/svg" xmlns:xlink="http://www.w3.org/1999/xlink" x="0px" y="0px"
	 viewBox="0 0 30 30" enable-background="new 0 0 30 30" xml:space="preserve">
<path fill="#FFFFFF" d="M15,23.529c-4.703,0-8.529-3.826-8.529-8.529S10.297,6.5,15,6.471s8.529,3.8,8.5,8.529
	S19.703,23.5,15,23.529z M22.193,16.168c-0.249-0.078-2.255-0.677-4.538-0.311c0.953,2.6,1.3,4.8,1.4,5.2
	C20.705,19.9,21.9,18.2,22.2,16.168H22.193z M17.846,21.717c-0.108-0.639-0.531-2.867-1.554-5.525
	c-0.016,0.006-0.032,0.011-0.048,0.016c-4.109,1.432-5.584,4.282-5.715,4.549c1.235,1,2.8,1.5,4.5,1.5
	C16.009,22.3,17,22.1,17.8,21.717H17.846z M9.588,19.882c0.165-0.282,2.164-3.593,5.922-4.807c0.095-0.031,0.191-0.059,0.287-0.087
	c-0.183-0.414-0.382-0.828-0.591-1.236c-3.638,1.089-7.169,1.044-7.487,1c-0.002,0.074-0.004,0.148-0.004,0.223
	C7.715,16.9,8.4,18.6,9.6,19.882H9.588z M7.869,13.519c0.326,0,3.3,0,6.735-0.887c-1.207-2.146-2.509-3.95-2.701-4.213
	C9.865,9.4,8.3,11.3,7.9,13.519H7.869z M13.293,7.929c0.201,0.3,1.5,2.1,2.7,4.3c2.59-0.971,3.687-2.445,3.818-2.632
	C18.542,8.4,16.9,7.7,15,7.726C14.412,7.7,13.8,7.8,13.3,7.929H13.293z M20.639,10.4c-0.154,0.208-1.374,1.773-4.068,2.873
	c0.17,0.3,0.3,0.7,0.5,1.055c0.054,0.1,0.1,0.3,0.2,0.4c2.424-0.305,4.8,0.2,5.1,0.235C22.268,13.2,21.7,11.6,20.6,10.404
	L20.639,10.4z"/>
<g>
	<path fill="#FFFFFF" d="M15,1c7.72,0,14,6.3,14,14s-6.28,14-14,14S1,22.7,1,15S7.28,1,15,1 M15,0C6.716,0,0,6.7,0,15
		s6.716,15,15,15s15-6.716,15-15S23.284,0,15,0L15,0z"/>
</g>
</svg>
