<?xml version="1.0" encoding="utf-8"?>
<!-- Generator: Adobe Illustrator 17.1.0, SVG Export Plug-In . SVG Version: 6.00 Build 0)  -->
<!DOCTYPE svg PUBLIC "-//W3C//DTD SVG 1.1//EN" "http://www.w3.org/Graphics/SVG/1.1/DTD/svg11.dtd">
<svg version="1.1" id="Layer_1" xmlns="http://www.w3.org/2000/svg" xmlns:xlink="http://www.w3.org/1999/xlink" x="0px" y="0px"
	 viewBox="0 0 30 30" enable-background="new 0 0 30 30" xml:space="preserve">
<g>
	<path fill="#FFFFFF" d="M15,1c7.72,0,14,6.3,14,14s-6.28,14-14,14S1,22.7,1,15S7.28,1,15,1 M15,0C6.716,0,0,6.7,0,15
		s6.716,15,15,15s15-6.716,15-15S23.284,0,15,0L15,0z"/>
</g>
<path fill="#FFFFFF" d="M23.591,9.671c-0.632,0.281-1.311,0.47-2.025,0.555c0.728-0.436,1.287-1.127,1.55-1.95
	c-0.681,0.404-1.436,0.698-2.238,0.855c-0.643-0.685-1.559-1.113-2.573-1.113c-1.947,0-3.525,1.578-3.525,3.5c0,0.3,0,0.5,0.1,0.803
	c-2.93-0.147-5.527-1.55-7.266-3.683c-0.303,0.521-0.477,1.126-0.477,1.8c0,1.2,0.6,2.3,1.6,2.934
	c-0.578-0.018-1.122-0.177-1.597-0.441c0,0,0,0,0,0.044c0,1.7,1.2,3.1,2.8,3.5c-0.296,0.081-0.607,0.124-0.929,0.124
	c-0.227,0-0.448-0.022-0.663-0.063c0.448,1.4,1.8,2.4,3.3,2.4c-1.207,0.945-2.726,1.509-4.378,1.509
	c-0.284,0-0.565-0.017-0.841-0.049c1.56,1,3.4,1.6,5.4,1.6c6.484,0,10.03-5.372,10.03-10.03c0-0.153-0.003-0.305-0.01-0.456
	C22.521,11,23.1,10.4,23.6,9.671H23.591z"/>
</svg>
